<svg id="_0074_recycling" xmlns="http://www.w3.org/2000/svg" viewBox="0 0 500 500" data-imageid="recycling-10" imageName="Recycling" class="illustrations_image" style="width: 186px;"><defs><style>.cls-1_recycling-10,.cls-2_recycling-10,.cls-3_recycling-10{fill:#e6e6e6;}.cls-1_recycling-10,.cls-4_recycling-10{opacity:.58;}.cls-5_recycling-10{fill:#f4a28c;}.cls-6_recycling-10{fill:#a5a5a5;}.cls-2_recycling-10{opacity:.27;}.cls-7_recycling-10{opacity:.03;}.cls-7_recycling-10,.cls-8_recycling-10{fill:#000001;}.cls-9_recycling-10{opacity:.23;}.cls-9_recycling-10,.cls-10_recycling-10,.cls-11_recycling-10{fill:#fff;}.cls-10_recycling-10{opacity:.14;}.cls-12_recycling-10{fill:#ce8172;opacity:.31;}.cls-4_recycling-10,.cls-13_recycling-10,.cls-14_recycling-10{fill:#68e1fd;}.cls-11_recycling-10{opacity:.46;}.cls-15_recycling-10{fill:#24285b;}.cls-8_recycling-10{opacity:.08;}.cls-13_recycling-10{opacity:.73;}.cls-16_recycling-10{fill:#ffd200;}</style></defs><path id="bg_recycling-10" class="cls-2_recycling-10" d="m142.21,66.01c-61.92,21.85-101.15,96.54-88.87,172.76,6.45,40.06,26.77,77.65,75.27,95.38,129.34,47.27,264.24,15.5,304.24-58.18,40-73.68,7.7-231.84-124.73-236.75-64.87-2.41-123.24,11.74-165.9,26.79Z"/><ellipse id="sd_recycling-10" class="cls-7_recycling-10" cx="250" cy="441.66" rx="227.87" ry="19.39"/><g id="person_recycling-10"><path class="cls-14_recycling-10 targetColor" d="m230.93,164.05s-45.02,16.85-32.4,84.22c12.62,67.38-62.44,38.12-77.61-13.23l-16.67,6.79s20.94,75.17,69.8,79.65c48.86,4.49,75.39-47.16,78.49-81.7,3.1-34.53-21.61-75.73-21.61-75.73Z" style="fill: rgb(104, 225, 253);"/><path class="cls-11_recycling-10" d="m230.93,164.05s-45.02,16.85-32.4,84.22c12.62,67.38-62.44,38.12-77.61-13.23l-16.67,6.79s20.94,75.17,69.8,79.65c48.86,4.49,75.39-47.16,78.49-81.7,3.1-34.53-21.61-75.73-21.61-75.73Z"/><path class="cls-5_recycling-10" d="m252.86,115.8s-.52,11.33,1.69,18.75c.9,3.01,4.11,4.75,7.11,3.81,3.72-1.17,8.42-3.82,9.44-9.86l2.98-10.03s1.65-6.35-4.93-10.68c-6.57-4.33-16.32,1.09-16.29,8Z"/><polygon class="cls-5_recycling-10" points="273.3 123.61 277.51 160.51 257 161.38 262.17 134.18 273.3 123.61"/><path class="cls-15_recycling-10" d="m255.69,116.16c1.98.02,5.61-.14,10.41-1.23,0,0-3.34,5.08.42,10.36,3.76,5.29,9.41,2.69,9.41,2.69l-.78-14.54c-.09-4.25-2.49-8.11-6.27-10.05-1.54-.79-3.25-1.57-4.96-2.17-4.26-1.51-10.28,1.54-14.15-1.14-1.7-1.17-4.04-.08-4.26,1.97-.47,4.45.6,11.38,6.69,13.56,1.11.4,2.29.54,3.48.55Z"/><path class="cls-5_recycling-10" d="m265.3,125s-.09-4.36,3.2-4.16c3.29.2,3.46,6.51-.96,7.28l-2.23-3.11Z"/><path class="cls-5_recycling-10" d="m252.9,122.95l-2.98,4.49c-.74,1.11-.07,2.61,1.25,2.8l4.36.64-2.64-7.93Z"/><path class="cls-12_recycling-10" d="m262.45,135.06s3.86.19,7.4-2.2c0,0-.29,6.86-9.18,11.52l1.77-9.32Z"/><path class="cls-14_recycling-10 targetColor" d="m338.35,423.61s3.26,5.88,8.98,5.44c5.72-.44,8.1,4.84,3.26,7.1-4.84,2.26-18.99-2.13-18.99-2.13l-.96-8.2,7.71-2.2Z" style="fill: rgb(104, 225, 253);"/><path class="cls-14_recycling-10 targetColor" d="m253.7,423.61s-3.26,5.88-8.98,5.44c-5.72-.44-8.1,4.84-3.26,7.1s18.99-2.13,18.99-2.13l.96-8.2-7.71-2.2Z" style="fill: rgb(104, 225, 253);"/><path class="cls-15_recycling-10" d="m228.92,316.01l21.22,107.59,13.82,2.77.46-54.7c.19-23.05,15.45-43.26,37.57-49.76l11.05-3.25-84.13-2.66Z"/><path class="cls-15_recycling-10" d="m313.04,318.68l29.7,105.42-16.73,3.46s-19.11-67.57-68.98-98.64l56-10.24Z"/><path class="cls-14_recycling-10 targetColor" d="m235.84,160.95s79.86-15.31,107.15,0c27.29,15.31-29.95,157.73-29.95,157.73l-84.13-2.66s-73.6-140.43,6.92-155.07Z" style="fill: rgb(104, 225, 253);"/><path class="cls-8_recycling-10" d="m301.47,180.66s-15.16,17.57,0,40.6c15.16,23.03-21.9,96.36-21.9,96.36l33.48,1.06s27.62-72.64,33.08-103.94c4.93-28.27-44.66-34.08-44.66-34.08Z"/><path class="cls-14_recycling-10 targetColor" d="m301.88,185.99c-3.57-19.03,15.61-34.54,33.83-27.98,28.95,10.43,74.21,32.48,86.54,71.27,18.55,58.34-96.24,92.48-96.24,92.48l-7.65-16.3s67.36-17.72,62.05-62.76c-4.25-36.03-72.22-23-78.54-56.71Z" style="fill: rgb(104, 225, 253);"/><path class="cls-11_recycling-10" d="m301.88,185.99c-3.57-19.03,15.61-34.54,33.83-27.98,28.95,10.43,74.21,32.48,86.54,71.27,18.55,58.34-96.24,92.48-96.24,92.48l-7.65-16.3s67.36-17.72,62.05-62.76c-4.25-36.03-72.22-23-78.54-56.71Z"/><path class="cls-5_recycling-10" d="m318.43,305.45s-18.52,11.21-11,19.73c7.51,8.51,16.9-7.16,16.9-7.16l-5.9-12.57Z"/><path class="cls-5_recycling-10" d="m117.57,236.41s-4.97-17.47-21.03-15.39c-16.07,2.09,7.72,20.8,7.72,20.8l13.31-5.42Z"/><polygon class="cls-15_recycling-10" points="96.53 221.02 80.47 196.29 136.51 203.46 110.64 225.32 96.53 221.02"/><path class="cls-15_recycling-10" d="m93.7,231.34s-114.55,82.08-42.09,109.7c98.36,37.48,118.86-25.23,56.58-104.63l-14.49-5.07Z"/><circle class="cls-9_recycling-10" cx="88.44" cy="300.2" r="27.51"/></g><g id="plant_recycling-10"><path class="cls-4_recycling-10 targetColor" d="m166.23,417.09s-15.51-4.24-18.88-18.67c0,0,24.03-4.86,24.71,19.94l-5.83-1.28Z" style="fill: rgb(104, 225, 253);"/><path class="cls-13_recycling-10 targetColor" d="m168.13,415.56s-10.83-17.13-1.3-33.14c0,0,18.27,11.6,10.15,33.18l-8.85-.04Z" style="fill: rgb(104, 225, 253);"/><path class="cls-14_recycling-10 targetColor" d="m170.92,415.57s5.72-18.09,23.03-21.51c0,0,3.24,11.74-11.2,21.56l-11.82-.05Z" style="fill: rgb(104, 225, 253);"/><polygon class="cls-15_recycling-10" points="159.68 415.16 162.82 436.67 182.62 436.75 185.54 415.27 159.68 415.16"/></g><g id="bin_recycling-10"><rect class="cls-1_recycling-10" x="400.75" y="406.26" width="44.89" height="17.7"/><rect class="cls-3_recycling-10" x="400.75" y="423.96" width="61.96" height="17.7"/><polygon class="cls-16_recycling-10" points="332.87 313.15 339.99 280.37 415.53 280.37 421.23 313.15 410.54 441.66 344.27 441.66 332.87 313.15"/><polygon class="cls-8_recycling-10" points="332.87 313.15 339.99 280.37 415.53 280.37 421.23 313.15 410.54 441.66 344.27 441.66 332.87 313.15"/><polygon class="cls-16_recycling-10" points="308.74 313.15 315.86 280.37 391.4 280.37 397.1 313.15 386.41 441.66 320.14 441.66 308.74 313.15"/><polygon class="cls-15_recycling-10" points="325.66 287.74 320.38 311.96 386.89 311.96 381.42 287.74 325.66 287.74"/><ellipse class="cls-11_recycling-10" cx="354.94" cy="376.34" rx="17.7" ry="36.58"/><rect class="cls-16_recycling-10" x="304.82" y="311.96" width="121.86" height="18.63"/><polygon class="cls-8_recycling-10" points="426.68 330.6 395.65 330.6 397.1 311.96 426.68 311.96 426.68 330.6"/><polygon class="cls-10_recycling-10" points="348.56 287.74 344.72 311.96 386.89 311.96 381.42 287.74 348.56 287.74"/></g><g id="think_recycling-10"><rect class="cls-3_recycling-10" x="316.35" y="79.38" width="61.95" height="37.42" rx="12" ry="12"/><circle class="cls-6_recycling-10" cx="332.65" cy="97.77" r="4.6"/><circle class="cls-6_recycling-10" cx="347.33" cy="97.77" r="4.6"/><circle class="cls-6_recycling-10" cx="362.01" cy="97.77" r="4.6"/></g></svg>