<svg width="32" height="32" viewBox="0 0 32 32" fill="none" xmlns="http://www.w3.org/2000/svg">
<path d="M16 0C7.16343 0 0 7.16339 0 15.9999C0 18.7085 0.674286 21.2627 1.864 23.5004L0.0674286 29.817C-0.0160632 30.1107 -0.0195988 30.4213 0.0571869 30.7168C0.133973 31.0124 0.288293 31.282 0.504195 31.4979C0.720098 31.7138 0.989746 31.8681 1.28526 31.9449C1.58078 32.0217 1.89145 32.0182 2.18514 31.9347L8.50286 30.1381C10.8113 31.3643 13.3861 32.0037 16 31.9998C24.8366 31.9998 32 24.8364 32 15.9999C32 7.16339 24.8366 0 16 0ZM16 30.857C13.5737 30.8579 11.1841 30.2646 9.04 29.129L8.63429 28.913L1.87314 30.8364C1.81975 30.8524 1.76431 30.8605 1.70857 30.8604C1.62081 30.8586 1.53462 30.8367 1.45662 30.7965C1.37861 30.7562 1.31087 30.6986 1.25857 30.6281C1.20627 30.5576 1.17082 30.4761 1.15492 30.3898C1.13902 30.3034 1.14311 30.2146 1.16686 30.1301L3.08914 23.3701L2.87314 22.9644C1.73613 20.8195 1.14205 18.4287 1.14286 16.001C1.14286 7.8091 7.808 1.14399 16 1.14399C24.192 1.14399 30.8571 7.8091 30.8571 16.001C30.8571 24.193 24.192 30.857 16 30.857ZM22.2857 12.5725H9.71429C9.56273 12.5725 9.41739 12.5123 9.31022 12.4051C9.20306 12.298 9.14286 12.1526 9.14286 12.0011C9.14286 11.8495 9.20306 11.7042 9.31022 11.597C9.41739 11.4898 9.56273 11.4296 9.71429 11.4296H22.2857C22.4373 11.4296 22.5826 11.4898 22.6898 11.597C22.7969 11.7042 22.8571 11.8495 22.8571 12.0011C22.8571 12.1526 22.7969 12.298 22.6898 12.4051C22.5826 12.5123 22.4373 12.5725 22.2857 12.5725ZM17.7143 19.4296H9.71429C9.56273 19.4296 9.41739 19.3694 9.31022 19.2622C9.20306 19.1551 9.14286 19.0097 9.14286 18.8582C9.14286 18.7066 9.20306 18.5613 9.31022 18.4541C9.41739 18.347 9.56273 18.2867 9.71429 18.2867H17.7143C17.8658 18.2867 18.0112 18.347 18.1183 18.4541C18.2255 18.5613 18.2857 18.7066 18.2857 18.8582C18.2857 19.0097 18.2255 19.1551 18.1183 19.2622C18.0112 19.3694 17.8658 19.4296 17.7143 19.4296Z" fill="url(#paint0_linear_42_216)"/>
<defs>
<linearGradient id="paint0_linear_42_216" x1="16" y1="0" x2="16" y2="32" gradientUnits="userSpaceOnUse">
<stop stop-color="#00978A"/>
<stop offset="1" stop-color="#0C3A63"/>
</linearGradient>
</defs>
</svg>
