<svg width="58" height="45" viewBox="0 0 58 45" fill="none" xmlns="http://www.w3.org/2000/svg">
<path d="M13.0684 44.8974C13.0811 44.9058 13.0981 44.9016 13.1108 44.91C13.2108 44.9659 13.323 44.9968 13.4376 45C13.5007 44.9999 13.5635 44.9914 13.6243 44.9747L28.9986 40.8038L44.3728 44.9747C44.4337 44.9914 44.4965 44.9999 44.5596 45C44.6739 44.9961 44.7855 44.9648 44.8849 44.9086C44.8991 44.9016 44.9146 44.9044 44.9274 44.8959L57.6591 37.1616C57.7908 37.0815 57.8925 36.9607 57.9487 36.8178C58.0049 36.6748 58.0125 36.5175 57.9703 36.3699L50.9198 11.7605C50.8907 11.6581 50.8386 11.5637 50.7675 11.4843C50.6964 11.4048 50.6081 11.3424 50.5092 11.3018C50.4104 11.2612 50.3035 11.2434 50.1967 11.2498C50.0899 11.2562 49.986 11.2865 49.8927 11.3386L42.8733 15.2536C42.7196 15.3501 42.609 15.5016 42.5645 15.6768C42.52 15.852 42.5449 16.0375 42.6341 16.195C42.7233 16.3525 42.87 16.4699 43.0438 16.5229C43.2176 16.5759 43.4052 16.5605 43.5679 16.4798L49.805 12.9994L56.4637 36.2391L45.1254 43.1283L42.432 21.7097C42.4087 21.5245 42.3124 21.3561 42.1642 21.2415C42.016 21.1269 41.8282 21.0756 41.6419 21.0987C41.4556 21.1218 41.2862 21.2175 41.1709 21.3648C41.0556 21.5121 41.004 21.6989 41.0272 21.8841L43.7249 43.342L29.7059 39.5381V35.6991C29.7059 35.5126 29.6314 35.3337 29.4987 35.2019C29.3661 35.07 29.1862 34.9959 28.9986 34.9959C28.811 34.9959 28.6311 35.07 28.4984 35.2019C28.3658 35.3337 28.2913 35.5126 28.2913 35.6991V39.5381L14.2708 43.342L16.9685 21.8841C16.9801 21.7924 16.9733 21.6993 16.9486 21.6102C16.924 21.5211 16.8819 21.4378 16.8248 21.3648C16.7678 21.2919 16.6968 21.2309 16.616 21.1852C16.5352 21.1395 16.4461 21.1101 16.3539 21.0987C16.2616 21.0872 16.168 21.0939 16.0784 21.1185C15.9888 21.143 15.9049 21.1848 15.8315 21.2415C15.7582 21.2983 15.6968 21.3688 15.6508 21.4491C15.6049 21.5295 15.5753 21.618 15.5638 21.7097L12.8718 43.1283L1.53346 36.2405L8.19215 13.0022L14.4293 16.4827C14.592 16.5633 14.7796 16.5787 14.9534 16.5257C15.1272 16.4727 15.2739 16.3553 15.3631 16.1978C15.4523 16.0404 15.4772 15.8548 15.4327 15.6796C15.3881 15.5044 15.2776 15.3529 15.1239 15.2564L8.10303 11.34C8.01003 11.2871 7.90608 11.256 7.79914 11.2492C7.6922 11.2424 7.58511 11.2601 7.4861 11.3008C7.38708 11.3415 7.29877 11.4043 7.22792 11.4842C7.15708 11.5641 7.1056 11.6591 7.07742 11.7619L0.0268791 36.3713C-0.0152788 36.5189 -0.00768107 36.6762 0.0485125 36.8192C0.104706 36.9621 0.206409 37.0829 0.338099 37.163L13.0684 44.8974Z" fill="url(#paint0_linear_370_116)"/>
<path d="M28.519 32.8613C28.6489 32.9804 28.8189 33.0469 28.9956 33.0477C29.1724 33.0485 29.343 32.9835 29.4739 32.8655C29.945 32.4394 41.023 22.3341 41.023 11.9531C41.023 5.24953 35.7421 0 28.9986 0C22.255 0 16.9742 5.24953 16.9742 11.9531C16.9742 22.1541 28.0479 32.4281 28.519 32.8613ZM28.9986 1.40625C35.0461 1.40625 39.6083 5.94 39.6083 11.9531C39.6083 20.527 31.1304 29.302 29.0028 31.3692C26.8795 29.2781 18.3888 20.3878 18.3888 11.9531C18.3888 5.94 22.951 1.40625 28.9986 1.40625Z" fill="url(#paint1_linear_370_116)"/>
<path d="M35.3645 11.9531C35.3645 8.46422 32.5083 5.625 28.9986 5.625C25.4889 5.625 22.6328 8.46422 22.6328 11.9531C22.6328 15.442 25.4889 18.2812 28.9986 18.2812C32.5083 18.2812 35.3645 15.442 35.3645 11.9531ZM28.9986 16.875C26.2684 16.875 24.0474 14.6672 24.0474 11.9531C24.0474 9.23906 26.2684 7.03125 28.9986 7.03125C31.7288 7.03125 33.9498 9.23906 33.9498 11.9531C33.9498 14.6672 31.7288 16.875 28.9986 16.875Z" fill="url(#paint2_linear_370_116)"/>
<defs>
<linearGradient id="paint0_linear_370_116" x1="28.9986" y1="11.2478" x2="28.9986" y2="45" gradientUnits="userSpaceOnUse">
<stop stop-color="#00978A"/>
<stop offset="1" stop-color="#0C3A63"/>
</linearGradient>
<linearGradient id="paint1_linear_370_116" x1="28.9986" y1="0" x2="28.9986" y2="33.0477" gradientUnits="userSpaceOnUse">
<stop stop-color="#00978A"/>
<stop offset="1" stop-color="#0C3A63"/>
</linearGradient>
<linearGradient id="paint2_linear_370_116" x1="28.9986" y1="5.625" x2="28.9986" y2="18.2812" gradientUnits="userSpaceOnUse">
<stop stop-color="#00978A"/>
<stop offset="1" stop-color="#0C3A63"/>
</linearGradient>
</defs>
</svg>
