<svg width="44" height="44" viewBox="0 0 44 44" fill="none" xmlns="http://www.w3.org/2000/svg">
<path d="M31.1147 21.7329L16.6856 6.76929L2.25641 21.7329H5.46289V33.3712C5.46289 34.2531 5.80071 35.0989 6.40204 35.7225C7.00337 36.3461 7.81895 36.6964 8.66936 36.6964H16.2046" stroke="#01968A" stroke-width="2" stroke-linecap="round" stroke-linejoin="round"/>
<path d="M11.8759 36.6965V26.7207C11.8759 25.8388 12.2137 24.9931 12.815 24.3694C13.4163 23.7458 14.2319 23.3955 15.0823 23.3955H18.2888M29.8321 35.3664L32.718 38.3591M21.4953 31.7086C21.4953 33.0315 22.002 34.3001 22.904 35.2355C23.806 36.1709 25.0294 36.6965 26.305 36.6965C27.5806 36.6965 28.804 36.1709 29.706 35.2355C30.608 34.3001 31.1147 33.0315 31.1147 31.7086C31.1147 30.3857 30.608 29.1171 29.706 28.1817C28.804 27.2462 27.5806 26.7207 26.305 26.7207C25.0294 26.7207 23.806 27.2462 22.904 28.1817C22.002 29.1171 21.4953 30.3857 21.4953 31.7086Z" stroke="#01968A" stroke-width="2" stroke-linecap="round" stroke-linejoin="round"/>
</svg>
