<svg width="45" height="47" viewBox="0 0 45 47" fill="none" xmlns="http://www.w3.org/2000/svg">
<path d="M21.2689 39.3571C21.1013 37.735 20.8591 36.1222 20.5431 34.5241C20.1484 32.5136 18.5491 31.0581 16.5786 30.9377C15.4094 30.867 14.2385 30.8322 13.0673 30.8333C11.714 30.8333 10.533 30.877 9.55598 30.9377C7.58554 31.0581 5.98622 32.5147 5.59152 34.5241C5.32497 35.8773 5.04816 37.5512 4.86568 39.3571M43.727 41.1344C43.563 40.0241 42.5695 39.4807 41.49 39.4616C39.0182 39.4211 33.436 39.3571 22.2941 39.3571C11.1522 39.3571 5.57102 39.4211 3.09925 39.4626C2.01869 39.4807 1.02527 40.0252 0.861236 41.1354C0.794374 41.612 0.762159 42.0932 0.764867 42.5749C0.764867 43.1353 0.801774 43.6031 0.857135 43.992C1.02117 45.1171 2.02894 45.6648 3.12386 45.6775C5.60895 45.7074 11.1912 45.75 22.2941 45.75C33.3971 45.75 38.9803 45.7074 41.4644 45.6786C42.5593 45.6658 43.5671 45.1182 43.7301 43.993C43.7865 43.6052 43.8234 43.1375 43.8234 42.5759C43.8262 42.0936 43.794 41.6117 43.727 41.1344ZM21.2689 12.7202C21.2689 15.8286 22.457 18.8097 24.5719 21.0077C26.6868 23.2057 29.5552 24.4405 32.5461 24.4405C35.537 24.4405 38.4054 23.2057 40.5203 21.0077C42.6352 18.8097 43.8234 15.8286 43.8234 12.7202C43.8234 9.61184 42.6352 6.63075 40.5203 4.43278C38.4054 2.23481 35.537 1 32.5461 1C29.5552 1 26.6868 2.23481 24.5719 4.43278C22.457 6.63075 21.2689 9.61184 21.2689 12.7202Z" stroke="url(#paint0_linear_342_136)" stroke-width="1.5" stroke-linecap="round" stroke-linejoin="round"/>
<path d="M32.5461 12.7202V18.0476M32.5461 7.39285V8.45833M6.91608 24.4405C6.91608 26.136 7.56415 27.762 8.71773 28.9609C9.8713 30.1598 11.4359 30.8333 13.0673 30.8333C14.6987 30.8333 16.2633 30.1598 17.4169 28.9609C18.5704 27.762 19.2185 26.136 19.2185 24.4405C19.2185 22.745 18.5704 21.1189 17.4169 19.92C16.2633 18.7211 14.6987 18.0476 13.0673 18.0476C11.4359 18.0476 9.8713 18.7211 8.71773 19.92C7.56415 21.1189 6.91608 22.745 6.91608 24.4405Z" stroke="url(#paint1_linear_342_136)" stroke-width="1.5" stroke-linecap="round" stroke-linejoin="round"/>
<defs>
<linearGradient id="paint0_linear_342_136" x1="22.2941" y1="1" x2="22.2941" y2="45.75" gradientUnits="userSpaceOnUse">
<stop stop-color="#00978A"/>
<stop offset="1" stop-color="#0C3A63"/>
</linearGradient>
<linearGradient id="paint1_linear_342_136" x1="19.7311" y1="7.39285" x2="19.7311" y2="30.8333" gradientUnits="userSpaceOnUse">
<stop stop-color="#00978A"/>
<stop offset="1" stop-color="#0C3A63"/>
</linearGradient>
</defs>
</svg>
