<svg width="32" height="32" viewBox="0 0 32 32" fill="none" xmlns="http://www.w3.org/2000/svg">
<path d="M15.3333 4C18.6927 4 21.9145 5.33452 24.29 7.70998C26.6655 10.0854 28 13.3073 28 16.6667C28 20.0261 26.6655 23.2479 24.29 25.6234C21.9145 27.9988 18.6927 29.3333 15.3333 29.3333C11.9739 29.3333 8.7521 27.9988 6.37664 25.6234C4.00118 23.2479 2.66666 20.0261 2.66666 16.6667C2.66666 13.3073 4.00118 10.0854 6.37664 7.70998C8.7521 5.33452 11.9739 4 15.3333 4ZM15.3333 5.33333C12.3275 5.33333 9.44486 6.52738 7.31945 8.65279C5.19403 10.7782 3.99999 13.6609 3.99999 16.6667C3.99999 19.6725 5.19403 22.5551 7.31945 24.6805C9.44486 26.806 12.3275 28 15.3333 28C16.8216 28 18.2954 27.7069 19.6704 27.1373C21.0454 26.5677 22.2948 25.7329 23.3472 24.6805C24.3996 23.6281 25.2344 22.3788 25.804 21.0037C26.3735 19.6287 26.6667 18.155 26.6667 16.6667C26.6667 13.6609 25.4726 10.7782 23.3472 8.65279C21.2218 6.52738 18.3391 5.33333 15.3333 5.33333ZM14.6667 10.6667V13.3333H16V10.6667H14.6667ZM14.6667 16V22.6667H16V16H14.6667Z" fill="url(#paint0_linear_115_90)"/>
<defs>
<linearGradient id="paint0_linear_115_90" x1="15.3333" y1="4" x2="15.3333" y2="29.3333" gradientUnits="userSpaceOnUse">
<stop stop-color="#00978A"/>
<stop offset="1" stop-color="#0C3A63"/>
</linearGradient>
</defs>
</svg>
