<svg width="32" height="32" viewBox="0 0 32 32" fill="none" xmlns="http://www.w3.org/2000/svg">
<g clip-path="url(#clip0_342_162)">
<path d="M20.6667 28.6667V6M20.6667 28.6667H20.2227L19.7453 28.3733C17.2237 26.8216 14.3209 26 11.36 26H11.3333M20.6667 28.6667H20.9027C23.8021 28.6665 26.647 27.8784 29.1333 26.3867L30 25.8667V3.33333H29.6667L29.1907 3.62667C26.6686 5.17865 23.7653 6.00025 20.804 6H20.3333L19.6893 5.61333C17.2027 4.12137 14.3572 3.33329 11.4573 3.33333H11.3333M11.3333 26V3.33333M11.3333 26H11.1947H11M11.3333 3.33333H11.0987C8.19875 3.33329 5.35334 4.12137 2.86667 5.61333L2 6.13333V28.6667H2.33333L2.80933 28.3733C5.33139 26.8214 8.23468 25.9998 11.196 26" stroke="url(#paint0_linear_342_162)"/>
</g>
<defs>
<linearGradient id="paint0_linear_342_162" x1="16" y1="3.33333" x2="16" y2="28.6667" gradientUnits="userSpaceOnUse">
<stop stop-color="#00978A"/>
<stop offset="1" stop-color="#0C3A63"/>
</linearGradient>
<clipPath id="clip0_342_162">
<rect width="32" height="32" fill="white"/>
</clipPath>
</defs>
</svg>
