<svg width="35" height="35" viewBox="0 0 35 35" fill="none" xmlns="http://www.w3.org/2000/svg">
<path d="M30.8 32.2C32.3464 32.2 33.6 30.9464 33.6 29.4C33.6 27.8536 32.3464 26.6 30.8 26.6C29.2536 26.6 28 27.8536 28 29.4C28 30.9464 29.2536 32.2 30.8 32.2Z" fill="#13C75B"/>
<path d="M10.5 32.2C12.0464 32.2 13.3 30.9464 13.3 29.4C13.3 27.8536 12.0464 26.6 10.5 26.6C8.95361 26.6 7.70001 27.8536 7.70001 29.4C7.70001 30.9464 8.95361 32.2 10.5 32.2Z" fill="#13C75B"/>
<path d="M32.9 23.1H11.0397L11.5066 22.3426C11.7068 22.0178 11.7656 21.6251 11.6697 21.2555L11.214 19.5013L31.5021 18.4471C32.2714 18.4079 32.9 17.745 32.9 16.975V7.69995C32.9 6.92995 32.27 6.29995 31.5 6.29995H7.7833L7.5096 5.24785C7.43163 4.94778 7.25625 4.68208 7.01098 4.49243C6.76572 4.30278 6.46444 4.19991 6.1544 4.19995H1.4C1.0287 4.19995 0.672601 4.34745 0.410051 4.61C0.1475 4.87255 0 5.22865 0 5.59995C0 5.97125 0.1475 6.32735 0.410051 6.5899C0.672601 6.85245 1.0287 6.99995 1.4 6.99995H5.0722L8.8102 21.3815L7.3402 23.765C7.20959 23.9771 7.13794 24.2202 7.13265 24.4693C7.12736 24.7183 7.18861 24.9643 7.3101 25.1818C7.4314 25.3993 7.60856 25.5806 7.82328 25.7068C8.038 25.8331 8.28251 25.8997 8.5316 25.9H32.9C33.2713 25.9 33.6274 25.7525 33.8899 25.4899C34.1525 25.2274 34.3 24.8713 34.3 24.5C34.3 24.1286 34.1525 23.7726 33.8899 23.51C33.6274 23.2475 33.2713 23.1 32.9 23.1Z" fill="#13C75B"/>
</svg>
