<svg width="32" height="32" viewBox="0 0 32 32" fill="none" xmlns="http://www.w3.org/2000/svg">
<path d="M23.884 11.9067C23.7302 10.1035 22.963 8.40755 21.7103 7.10149C20.4577 5.79543 18.7952 4.95819 17 4.72933V4C17 3.73478 16.8946 3.48043 16.7071 3.29289C16.5196 3.10536 16.2652 3 16 3C15.7348 3 15.4804 3.10536 15.2929 3.29289C15.1053 3.48043 15 3.73478 15 4V4.72933C13.2046 4.95824 11.542 5.79567 10.2892 7.102C9.03654 8.40833 8.26949 10.1046 8.11599 11.908L7.77999 14.6173L7.77866 14.6307C7.6517 16.1409 6.97012 17.5506 5.86532 18.588L5.85199 18.6013C5.53066 18.9013 5.18132 19.228 4.95866 19.88C4.75332 20.484 4.66666 21.3347 4.66666 22.6867C4.66666 23.144 4.74932 23.5587 4.95732 23.9067C5.17199 24.2667 5.48132 24.492 5.81466 24.6333C6.13466 24.768 6.48799 24.8333 6.82399 24.876C7.04932 24.904 7.29999 24.9253 7.55066 24.9467L7.89599 24.9773C9.75199 25.152 12.5147 25.3333 16 25.3333C18.821 25.34 21.6407 25.2109 24.4493 24.9467C24.7 24.9253 24.952 24.904 25.176 24.876C25.512 24.8333 25.8653 24.7693 26.1853 24.6333C26.5423 24.4905 26.8432 24.2354 27.0427 23.9067C27.2507 23.5587 27.3333 23.144 27.3333 22.6867C27.3333 21.3347 27.2467 20.484 27.04 19.88C26.8187 19.228 26.4693 18.9013 26.1493 18.6L26.136 18.588C25.0307 17.5508 24.3486 16.141 24.2213 14.6307V14.6173L23.884 11.9067ZM16 6C17.6501 5.99998 19.24 6.6201 20.4544 7.7374C21.6687 8.85469 22.4189 10.3876 22.556 12.032V12.0453L22.8933 14.7547C23.0505 16.5893 23.8801 18.3011 25.2227 19.5613C25.5293 19.848 25.6667 19.9827 25.7787 20.3093C25.908 20.692 26 21.352 26 22.6867C26 22.9933 25.944 23.1467 25.8987 23.2227C25.8587 23.2893 25.796 23.3493 25.664 23.4053C25.5173 23.468 25.3093 23.5147 25.0107 23.552C24.8107 23.5787 24.604 23.596 24.3707 23.616L23.9787 23.6507C21.3259 23.8897 18.6635 24.0062 16 24C12.56 24 9.83999 23.8213 8.02132 23.6507L7.62932 23.616C7.41565 23.5988 7.20228 23.5779 6.98932 23.5533C6.76625 23.5321 6.54674 23.4828 6.33599 23.4067C6.20266 23.3493 6.14132 23.2893 6.10132 23.2227C6.05599 23.1467 5.99999 22.9933 5.99999 22.6867C5.99999 21.352 6.09199 20.6907 6.22132 20.3093C6.33332 19.9827 6.47066 19.848 6.77732 19.5613C8.11989 18.3011 8.94946 16.5893 9.10666 14.7547L9.44266 12.0453L9.44399 12.032C9.58111 10.3876 10.3312 8.85469 11.5456 7.7374C12.7599 6.6201 14.3498 5.99998 16 6ZM10.08 26.0667C10.0366 25.899 9.92967 25.7548 9.78181 25.6645C9.63396 25.5743 9.45679 25.5452 9.28783 25.5833C9.11887 25.6214 8.97139 25.7238 8.8766 25.8688C8.78181 26.0138 8.74716 26.1899 8.77999 26.36C8.9548 27.1353 9.32471 27.8531 9.85466 28.4453C10.2925 28.9346 10.8287 29.326 11.4281 29.5939C12.0275 29.8618 12.6767 30.0002 13.3333 30C13.9899 30.0002 14.6391 29.8618 15.2386 29.5939C15.838 29.326 16.3741 28.9346 16.812 28.4453C16.9301 28.3136 16.991 28.1404 16.9814 27.9637C16.9718 27.787 16.8924 27.6214 16.7607 27.5033C16.6289 27.3852 16.4557 27.3243 16.279 27.3339C16.1024 27.3435 15.9368 27.4229 15.8187 27.5547C15.506 27.9045 15.123 28.1844 14.6947 28.376C14.2664 28.5676 13.8025 28.6667 13.3333 28.6667C12.6798 28.6688 12.0403 28.4779 11.4947 28.1181C10.9492 27.7583 10.522 27.2455 10.2667 26.644C10.187 26.4576 10.1245 26.2644 10.08 26.0667Z" fill="url(#paint0_linear_109_258)"/>
<defs>
<linearGradient id="paint0_linear_109_258" x1="16" y1="3" x2="16" y2="30" gradientUnits="userSpaceOnUse">
<stop stop-color="#00978A"/>
<stop offset="1" stop-color="#0C3A63"/>
</linearGradient>
</defs>
</svg>
