<svg width="30" height="30" viewBox="0 0 30 30" fill="none" xmlns="http://www.w3.org/2000/svg">
<path d="M4.04357 22.7271C4.22315 24.2239 4.92996 25.6078 6.03731 26.6307C7.14466 27.6536 8.58013 28.2487 10.0864 28.3093C13.3611 28.4267 16.6389 28.4267 19.9136 28.3093C21.4199 28.2487 22.8553 27.6536 23.9627 26.6307C25.07 25.6078 25.7768 24.2239 25.9564 22.7271C26.0764 21.6557 26.16 20.5671 26.16 19.4635C26.16 18.36 26.0743 17.2735 25.9543 16.2021C25.7748 14.7057 25.0683 13.3221 23.9614 12.2992C22.8545 11.2763 21.4195 10.681 19.9136 10.62C18.2764 10.5621 16.6382 10.5335 15 10.5343C13.2643 10.5343 11.6529 10.5643 10.0843 10.62C8.57837 10.681 7.1434 11.2763 6.0365 12.2992C4.92959 13.3221 4.22309 14.7057 4.04357 16.2021C3.91651 17.2847 3.84855 18.3735 3.84 19.4635C3.84 20.5671 3.92357 21.6557 4.04357 22.7271Z" stroke="url(#paint0_linear_784_140)" stroke-linecap="round" stroke-linejoin="round"/>
<path d="M21.2507 10.5364V7.85784C21.2661 7.02738 21.1158 6.2022 20.8086 5.43049C20.5015 4.65878 20.0436 3.95602 19.4617 3.36329C18.8799 2.77056 18.1857 2.29974 17.4198 1.97834C16.6539 1.65693 15.8317 1.49139 15.0011 1.49139C14.1705 1.49139 13.3482 1.65693 12.5823 1.97834C11.8164 2.29974 11.1223 2.77056 10.5404 3.36329C9.95857 3.95602 9.50068 4.65878 9.19351 5.43049C8.88635 6.2022 8.73606 7.02738 8.75144 7.85784V10.5364M15 18.2143V20.3571" stroke="url(#paint1_linear_784_140)" stroke-linecap="round" stroke-linejoin="round"/>
<defs>
<linearGradient id="paint0_linear_784_140" x1="15" y1="10.5342" x2="15" y2="28.3973" gradientUnits="userSpaceOnUse">
<stop stop-color="#00987A"/>
<stop offset="1" stop-color="#0C3A63"/>
</linearGradient>
<linearGradient id="paint1_linear_784_140" x1="15.0011" y1="1.49139" x2="15.0011" y2="20.3571" gradientUnits="userSpaceOnUse">
<stop stop-color="#00987A"/>
<stop offset="1" stop-color="#0C3A63"/>
</linearGradient>
</defs>
</svg>
