<svg width="50" height="50" viewBox="0 0 50 50" fill="none" xmlns="http://www.w3.org/2000/svg">
<g clip-path="url(#clip0_42_252)">
<path d="M25.3535 14.1836C25.2886 13.9873 25.3041 13.7732 25.3967 13.5883C25.4894 13.4034 25.6515 13.2628 25.8477 13.1973L28.1914 12.416C28.3087 12.3771 28.4336 12.3665 28.5558 12.3852C28.6779 12.404 28.7939 12.4514 28.8942 12.5236C28.9945 12.5959 29.0762 12.6909 29.1326 12.8009C29.189 12.9109 29.2186 13.0326 29.2188 13.1562V20.9688C29.2188 21.176 29.1364 21.3747 28.9899 21.5212C28.8434 21.6677 28.6447 21.75 28.4375 21.75C28.2303 21.75 28.0316 21.6677 27.8851 21.5212C27.7386 21.3747 27.6562 21.176 27.6562 20.9688V14.2402L26.3398 14.6777C26.1435 14.7427 25.9294 14.7271 25.7446 14.6345C25.5597 14.5419 25.4191 14.3797 25.3535 14.1836ZM50.3125 35.0312C50.3125 35.2384 50.2302 35.4372 50.0837 35.5837C49.9372 35.7302 49.7384 35.8125 49.5312 35.8125H5.78125C5.57405 35.8125 5.37534 35.7302 5.22882 35.5837C5.08231 35.4372 5 35.2384 5 35.0312C5 34.824 5.08231 34.6253 5.22882 34.4788C5.37534 34.3323 5.57405 34.25 5.78125 34.25H8.125V14.7188C8.125 14.0971 8.37193 13.501 8.81147 13.0615C9.25101 12.6219 9.84715 12.375 10.4688 12.375H19.0625V5.34375C19.0625 4.72215 19.3094 4.12601 19.749 3.68647C20.1885 3.24693 20.7846 3 21.4062 3H33.9062C34.5279 3 35.124 3.24693 35.5635 3.68647C36.0031 4.12601 36.25 4.72215 36.25 5.34375V20.1875H44.8438C45.4654 20.1875 46.0615 20.4344 46.501 20.874C46.9406 21.3135 47.1875 21.9096 47.1875 22.5312V34.25H49.5312C49.7384 34.25 49.9372 34.3323 50.0837 34.4788C50.2302 34.6253 50.3125 34.824 50.3125 35.0312ZM36.25 21.75V34.25H45.625V22.5312C45.625 22.324 45.5427 22.1253 45.3962 21.9788C45.2497 21.8323 45.0509 21.75 44.8438 21.75H36.25ZM20.625 34.25H34.6875V5.34375C34.6875 5.13655 34.6052 4.93784 34.4587 4.79132C34.3122 4.64481 34.1135 4.5625 33.9062 4.5625H21.4062C21.199 4.5625 21.0003 4.64481 20.8538 4.79132C20.7073 4.93784 20.625 5.13655 20.625 5.34375V34.25ZM9.6875 34.25H19.0625V13.9375H10.4688C10.2615 13.9375 10.0628 14.0198 9.91632 14.1663C9.76981 14.3128 9.6875 14.5115 9.6875 14.7188V34.25Z" fill="url(#paint0_linear_42_252)"/>
</g>
<defs>
<linearGradient id="paint0_linear_42_252" x1="27.6562" y1="3" x2="27.6563" y2="35.8125" gradientUnits="userSpaceOnUse">
<stop stop-color="#00978A"/>
<stop offset="1" stop-color="#0C3A63"/>
</linearGradient>
<clipPath id="clip0_42_252">
<rect width="50" height="50" fill="white"/>
</clipPath>
</defs>
</svg>
