<svg width="35" height="33" viewBox="0 0 35 33" fill="none" xmlns="http://www.w3.org/2000/svg">
<path d="M34.4126 20.4554L30.0916 27.6214C29.2447 29.0446 27.6718 29.7894 26.0817 29.6901H22.6249V33L18.3038 25.5527L22.6249 18.1053V21.4152H27.499L23.6619 15.0436L31.1459 10.9062L34.257 16.0697C35.1558 17.344 35.2768 19.0486 34.4126 20.4554ZM12.6174 0H21.2594C22.9533 0 24.4224 0.94333 25.1311 2.3004L26.8595 5.18004L29.8496 3.52508L25.2866 10.8235L16.3853 10.9724L19.3755 9.31745L16.9384 5.26279L13.1186 11.6344L5.61733 7.49699L8.72846 2.3335C9.43711 0.959879 10.9063 0 12.6174 0ZM5.4272 27.6379L1.10618 20.4719C0.259261 19.0652 0.38025 17.3771 1.26174 16.1028L2.99015 13.2397L0 11.5848L8.88402 11.7172L13.4643 19.0321L10.4742 17.3771L8.0371 21.4152H15.7112V29.6901H9.48896C8.67921 29.7462 7.86926 29.5836 7.15123 29.2208C6.43319 28.858 5.83587 28.3096 5.4272 27.6379Z" fill="#01968A"/>
</svg>
