<svg width="37" height="28" viewBox="0 0 37 28" fill="none" xmlns="http://www.w3.org/2000/svg">
<path d="M25.9 24.2667V28H0V24.2667C0 24.2667 0 16.8 12.95 16.8C25.9 16.8 25.9 24.2667 25.9 24.2667ZM19.425 6.53339C19.425 5.24122 19.0452 3.97807 18.3338 2.90367C17.6223 1.82927 16.611 0.991879 15.4279 0.497388C14.2447 0.00289687 12.9428 -0.126485 11.6868 0.125605C10.4308 0.377694 9.27703 0.999933 8.37148 1.91363C7.46594 2.82733 6.84926 3.99146 6.59942 5.2588C6.34958 6.52614 6.4778 7.83977 6.96788 9.03358C7.45796 10.2274 8.28788 11.2478 9.35268 11.9656C10.4175 12.6835 11.6694 13.0667 12.95 13.0667C14.6673 13.0667 16.3142 12.3784 17.5285 11.1531C18.7428 9.9279 19.425 8.26613 19.425 6.53339ZM25.789 16.8C26.9263 17.6881 27.8569 18.8168 28.5153 20.1068C29.1737 21.3968 29.544 22.8168 29.6 24.2667V28H37V24.2667C37 24.2667 37 17.4907 25.789 16.8ZM24.05 6.86866e-05C22.7768 -0.00590676 21.5318 0.378126 20.4795 1.1014C21.6033 2.6857 22.2075 4.58512 22.2075 6.53339C22.2075 8.48165 21.6033 10.3811 20.4795 11.9654C21.5318 12.6886 22.7768 13.0727 24.05 13.0667C25.7673 13.0667 27.4142 12.3784 28.6285 11.1531C29.8428 9.9279 30.525 8.26613 30.525 6.53339C30.525 4.80064 29.8428 3.13887 28.6285 1.91363C27.4142 0.688399 25.7673 6.86866e-05 24.05 6.86866e-05Z" fill="#1355C7"/>
</svg>
