<svg width="50" height="50" viewBox="0 0 50 50" fill="none" xmlns="http://www.w3.org/2000/svg">
<path d="M13.9625 6H36.4208L44.3833 17.3721L25.1917 44.7917L6 17.3721L13.9625 6ZM22.4558 8.04167L18.985 16.2083H31.3983L27.9275 8.04167H22.4558ZM18.7196 18.25L25.1917 38.1767L31.6637 18.25H18.7196ZM9.3075 16.2083H16.78L20.2508 8.04167H14.9833L9.3075 16.2083ZM9.10333 18.25L23.0275 38.1562L16.5758 18.25H9.10333ZM41.0758 16.2083L35.4 8.04167H30.1325L33.6033 16.2083H41.0758ZM41.28 18.25H33.8075L27.3558 38.1562L41.28 18.25Z" fill="url(#paint0_linear_342_132)"/>
<defs>
<linearGradient id="paint0_linear_342_132" x1="25.1917" y1="6" x2="25.1917" y2="44.7917" gradientUnits="userSpaceOnUse">
<stop stop-color="#085C71"/>
<stop offset="1" stop-color="#01968A"/>
</linearGradient>
</defs>
</svg>
